<svg xmlns="http://www.w3.org/2000/svg" width="50" height="50" viewBox="0 0 50 50"><g><g><g><path fill="#cacaca" d="M50 25c0 13.807-11.193 25-25 25S0 38.807 0 25 11.193 0 25 0s25 11.193 25 25zm-12.319 2.704c-1.051-1.026-1.118-1.621-.271-2.803.922-1.292 1.914-2.534 2.845-3.821.869-1.202 1.757-2.401 2.215-3.84.29-.917.033-1.32-.906-1.481a2.892 2.892 0 0 0-.494-.03l-5.572-.007c-.687-.01-1.065.29-1.309.897a33.718 33.718 0 0 1-1.055 2.437c-.885 1.8-1.874 3.537-3.262 5.01-.306.324-.643.734-1.155.565-.638-.233-.828-1.286-.817-1.642l-.005-6.43c-.124-.92-.328-1.328-1.24-1.507h-5.787c-.773 0-1.16.3-1.572.782-.238.28-.31.46.18.553.96.182 1.501.804 1.644 1.767.23 1.54.214 3.084.081 4.63-.038.45-.116.9-.295 1.322-.28.662-.732.797-1.325.39-.538-.37-.915-.89-1.285-1.412-1.388-1.961-2.495-4.076-3.398-6.298-.262-.642-.712-1.032-1.392-1.042-1.672-.027-3.343-.031-5.015.001-1.006.02-1.306.507-.896 1.42 1.82 4.049 3.846 7.985 6.492 11.572 1.358 1.84 2.918 3.465 4.932 4.616 2.283 1.306 4.74 1.699 7.33 1.577 1.211-.056 1.575-.372 1.631-1.58.039-.826.132-1.648.54-2.39.4-.73 1.006-.869 1.705-.415.35.227.643.515.922.82.682.746 1.34 1.516 2.048 2.237.887.904 1.94 1.437 3.263 1.328h5.121c.825-.054 1.254-1.064.78-1.985-.333-.646-.77-1.22-1.234-1.776-1.046-1.256-2.279-2.327-3.444-3.465z"/></g></g></g></svg>