<svg xmlns="http://www.w3.org/2000/svg" width="30" height="29" viewBox="0 0 30 29"><g><g><g><path fill="#fff" d="M6.581 21.046L0 27.41 1.645 29l6.582-6.363z"/></g><g><path fill="#fff" d="M16.125 24.174c-6.087 0-10.797-4.901-10.797-10.664 0-5.762 4.71-10.663 10.797-10.663 6.087 0 10.797 4.901 10.797 10.663 0 5.763-4.71 10.664-10.797 10.664zm13.33-10.664c0-7.361-5.969-13.33-13.33-13.33-7.362 0-13.33 5.969-13.33 13.33 0 7.362 5.968 13.33 13.33 13.33 7.361 0 13.33-5.968 13.33-13.33z"/></g></g></g></svg>